<svg width="362" height="330" xmlns="http://www.w3.org/2000/svg" xmlns:xlink="http://www.w3.org/1999/xlink" xml:space="preserve" overflow="hidden"><defs><clipPath id="clip0"><rect x="3115" y="696" width="362" height="330"/></clipPath></defs><g clip-path="url(#clip0)" transform="translate(-3115 -696)"><path d="M3238.4 988.658 3230.98 992.205C3200.47 1005.69 3172.83 1011.14 3152.11 1007.1L3149.67 1006.4 3150.03 1006.89C3168.91 1026.96 3209.37 1022.53 3256.21 999.328L3260.59 996.955 3256.31 995.859C3252.16 994.569 3248.09 993.081 3244.12 991.406ZM3353.28 988.606 3347.46 991.406C3343.49 993.081 3339.42 994.569 3335.26 995.859L3330.96 996.962 3344.62 1003.61C3387.59 1023 3424.1 1025.66 3441.76 1006.89L3442.07 1006.47 3439.89 1007.1C3417.79 1011.41 3387.82 1004.92 3354.87 989.402ZM3282.87 984.378 3276.64 988.253 3269.98 991.862 3270.54 992.004 3280.43 993.511 3288.86 988.373ZM3261.49 968.911 3254.96 972.837 3239.49 981.111 3246.79 984.62 3262.32 976.095 3267.08 973.046 3261.53 968.94ZM3418.87 893.898 3418.53 895.495 3418.76 894.606ZM3419.93 851.803 3416.22 857.558C3399.85 881.632 3378.56 906.534 3353.29 930.195 3348.23 934.927 3343.14 939.498 3338.02 943.9L3329.08 951.274 3334.24 954.762 3334.97 955.198 3357.9 935.095C3378.82 915.509 3397.03 895.022 3412.04 874.746L3420.94 862.103 3420.66 856.583ZM3171.75 851.624 3170.99 856.583 3170.72 861.914 3179.75 874.747C3194.76 895.022 3212.97 915.509 3233.89 935.095 3254.81 954.682 3276.46 971.514 3297.7 985.181L3311.33 993.493 3321.11 992.004 3321.66 991.863 3315.16 988.253C3290.03 973.477 3263.77 953.856 3238.5 930.195 3213.23 906.534 3191.94 881.632 3175.57 857.558ZM3410.97 819.67 3408.6 823.86C3391.31 852.767 3366.33 883.613 3335.37 912.598 3326.53 920.88 3317.56 928.666 3308.56 935.923L3307.99 936.367 3313.5 940.505 3314.2 939.978C3322.87 932.958 3331.48 925.455 3339.98 917.498 3365.48 893.627 3386.95 868.42 3403.52 843.886L3413.82 827.135 3411.45 820.66ZM3180.84 819.336 3180.2 820.66 3177.87 827.008 3180.61 831.684C3198.01 859.98 3222.27 889.649 3252.02 917.498 3281.76 945.348 3312.98 967.629 3342.39 983.161L3345.09 984.51 3352.37 981.009 3350.04 979.886C3320.03 964.505 3287.59 941.583 3256.63 912.598 3225.67 883.613 3200.69 852.767 3183.4 823.86ZM3392.19 789.258 3392.97 790.186 3392.65 789.762ZM3365.86 765.516 3366.23 765.776 3365.98 765.59ZM3355.31 759.165 3355.78 759.405 3355.64 759.32ZM3270.96 746.692 3270.54 746.756 3270.01 746.891ZM3320.43 746.651 3321.98 746.978 3321.11 746.756ZM3440.27 730.53 3441.51 736.139C3444.06 755.626 3437.96 780.591 3424.59 807.841L3418.62 819.281 3422.56 830.029 3425.8 842.606 3433.45 829.198C3455.57 787.651 3460.53 751.466 3442.88 732.703ZM3151.78 730.318 3148.92 732.703C3131.26 751.466 3136.23 787.652 3158.34 829.198L3165.84 842.344 3169.01 830.029 3173.13 818.804 3167.41 807.841C3154.04 780.591 3147.94 755.626 3150.49 736.139ZM3200.67 702.371C3186.46 702.66 3174.89 706.768 3167.04 715.107L3166.73 715.528 3168.91 714.902C3172.31 714.239 3175.9 713.831 3179.65 713.673 3202.18 712.722 3230.77 720.74 3261.58 736.34L3265.29 738.411 3260.54 739.471 3256 740.91 3238.96 732.912C3217.85 724.154 3198.53 719.644 3182.54 719.968 3175.44 720.112 3168.99 721.211 3163.34 723.317L3160.91 724.531 3158.56 730.064C3152.44 750.216 3159.27 779.287 3176.47 811.601L3176.49 811.633 3179.07 806.289C3201.55 765.015 3245.39 736.995 3295.79 736.995 3346.19 736.995 3390.03 765.015 3412.51 806.289L3415.28 812.038 3415.53 811.601C3432.73 779.287 3439.56 750.216 3433.44 730.064L3431.15 724.662 3428.45 723.317C3422.8 721.211 3416.35 720.112 3409.25 719.968 3393.26 719.644 3373.94 724.153 3352.84 732.912L3335.93 740.843 3326.17 738.599 3330.21 736.34C3361.02 720.74 3389.61 712.722 3412.14 713.673 3415.89 713.831 3419.48 714.239 3422.88 714.901L3425.32 715.603 3424.96 715.107C3417.11 706.768 3405.54 702.66 3391.33 702.371 3370.02 701.939 3342.77 710.101 3313.28 725.469L3302.65 731.545 3303.16 731.843 3308.62 735.451 3296.85 734.858 3296.81 734.88 3295.89 734.81 3295.88 734.81 3295.85 734.811 3283.4 735.438 3288.84 731.843 3289.35 731.545 3278.72 725.469C3249.23 710.101 3221.98 701.939 3200.67 702.371ZM3197.78 696.076C3222.42 695.036 3254.31 704.725 3288.42 723.33L3296 727.705 3303.58 723.33C3337.69 704.725 3369.58 695.036 3394.22 696.076 3409.24 696.71 3421.56 701.329 3430.05 710.345 3432.17 712.598 3434 715.074 3435.55 717.753L3436.39 719.671 3440.9 721.997C3443.48 723.708 3445.84 725.687 3447.96 727.941 3469.17 750.48 3461.37 795.161 3432.12 844.629L3427.3 852.29 3427.84 855.865C3428.3 860.316 3428.53 864.833 3428.53 869.403 3428.53 915.108 3405.31 955.403 3370 979.198L3360.53 984.942 3362.74 986.012C3396.16 1001.09 3425.68 1006.05 3445.46 998.684L3447.89 997.469 3450.24 991.937C3456.36 971.784 3449.53 942.713 3432.33 910.399L3426.95 900.88 3428.07 896.528 3428.85 891.438 3435.23 902.35C3452.84 934.165 3461.22 963.591 3458.31 985.861L3457.02 991.682 3459.89 989.297C3481.46 966.365 3469.25 917.406 3433.23 864.443L3430.36 860.431 3430.11 855.642 3429.64 852.522 3431.08 850.212 3444.58 869.917C3477.53 922.316 3487.24 970.393 3464.97 994.059 3462.85 996.313 3460.49 998.292 3457.91 1000L3453.13 1002.47 3452.35 1004.25C3450.8 1006.93 3448.97 1009.4 3446.85 1011.66 3425.64 1034.19 3380.44 1029.26 3329.1 1003.26L3321.69 999.25 3309.36 1001.13C3304.9 1001.58 3300.37 1001.81 3295.79 1001.81 3291.21 1001.81 3286.68 1001.58 3282.22 1001.13L3269.9 999.252 3256.95 1006.09C3208 1029.59 3165.36 1033.35 3144.95 1011.66 3142.83 1009.4 3140.99 1006.93 3139.45 1004.25L3138.6 1002.33 3134.09 1000C3131.51 998.292 3129.15 996.313 3127.03 994.059 3103.7 969.266 3115.47 917.682 3152.29 862.404L3161.11 849.87 3162.22 851.841 3161.64 855.642 3161.38 860.794 3158.77 864.443C3122.75 917.406 3110.54 966.365 3132.12 989.297L3134.73 991.47 3133.49 985.861C3130.57 963.591 3138.96 934.165 3156.57 902.35L3162.96 891.405 3164.8 900.963 3159.46 910.399C3142.26 942.713 3135.43 971.784 3141.55 991.936L3143.84 997.338 3146.54 998.684C3165.08 1005.59 3192.19 1001.67 3223.04 988.721L3231.14 984.999 3221.57 979.198C3186.26 955.403 3163.05 915.107 3163.05 869.403 3163.05 864.833 3163.28 860.316 3163.73 855.865L3164.32 852.013 3159.68 844.63C3130.42 795.161 3122.62 750.48 3143.83 727.941 3145.95 725.687 3148.31 723.708 3150.89 721.997L3155.67 719.532 3156.45 717.753C3158 715.074 3159.83 712.598 3161.96 710.344 3170.44 701.329 3182.76 696.71 3197.78 696.076Z" fill="#FFFFFF" fill-rule="evenodd"/></g></svg>