<svg width="1344" height="289"
  xmlns="http://www.w3.org/2000/svg"
  xmlns:xlink="http://www.w3.org/1999/xlink" xml:space="preserve" overflow="hidden">
  <defs>
    <clipPath id="clip0">
      <rect x="2094" y="1601" width="1344" height="289"/>
    </clipPath>
  </defs>
  <g clip-path="url(#clip0)" transform="translate(-2094 -1601)">
    <path d="M2202.05 1857.3 2195.56 1860.4C2168.84 1872.21 2144.64 1876.99 2126.5 1873.45L2124.36 1872.83 2124.68 1873.27C2141.21 1890.84 2176.63 1886.96 2217.65 1866.64L2221.48 1864.56 2217.74 1863.6C2214.1 1862.47 2210.54 1861.17 2207.06 1859.7ZM2302.65 1857.25 2297.55 1859.7C2294.07 1861.17 2290.51 1862.47 2286.87 1863.6L2283.1 1864.57 2295.06 1870.39C2332.69 1887.37 2364.66 1889.7 2380.12 1873.27L2380.39 1872.9 2378.48 1873.45C2359.13 1877.22 2332.89 1871.54 2304.04 1857.95ZM2142.53 1745.93 2142.18 1752.86C2142.18 1794.57 2165.48 1830.86 2199.81 1849.46L2202.7 1850.85 2216.55 1843.44 2222.28 1840 2222.31 1840.03 2227.17 1843.62 2223 1846.3C2218.33 1849.02 2213.69 1851.56 2209.12 1853.92L2209.1 1853.93 2209.44 1854.09C2212.73 1855.48 2216.11 1856.71 2219.56 1857.78L2229.35 1860.3 2235.53 1856.94 2240.99 1853.55 2246.24 1857.05 2238.5 1861.77 2241.05 1862.16C2244.75 1862.53 2248.5 1862.72 2252.3 1862.72 2256.11 1862.72 2259.86 1862.53 2263.56 1862.16L2266.27 1861.75 2253.97 1854.25C2235.38 1842.28 2216.42 1827.54 2198.11 1810.39 2179.79 1793.24 2163.85 1775.3 2150.7 1757.54ZM3390.68 1721.91C3384.08 1721.91 3378 1723.53 3372.42 1726.76 3366.85 1729.99 3362.41 1734.52 3359.12 1740.36 3355.82 1746.2 3354.18 1752.38 3354.18 1758.9 3354.18 1765.36 3355.84 1771.53 3359.16 1777.43 3362.49 1783.33 3366.95 1787.92 3372.55 1791.21 3378.15 1794.49 3384.17 1796.13 3390.59 1796.13 3397.07 1796.13 3403.2 1794.51 3409.01 1791.25 3414.81 1787.99 3419.27 1783.58 3422.4 1778.02 3425.53 1772.46 3427.09 1766.2 3427.09 1759.23 3427.09 1748.62 3423.58 1739.74 3416.57 1732.61 3409.56 1725.48 3400.92 1721.91 3390.68 1721.91ZM3278.18 1721.91C3271.59 1721.91 3265.5 1723.53 3259.92 1726.76 3254.35 1729.99 3249.91 1734.52 3246.62 1740.36 3243.33 1746.2 3241.68 1752.38 3241.68 1758.9 3241.68 1765.36 3243.34 1771.53 3246.66 1777.43 3249.98 1783.33 3254.45 1787.92 3260.05 1791.21 3265.66 1794.49 3271.67 1796.13 3278.09 1796.13 3284.57 1796.13 3290.71 1794.51 3296.51 1791.25 3302.31 1787.99 3306.78 1783.58 3309.9 1778.02 3313.02 1772.46 3314.59 1766.2 3314.59 1759.23 3314.59 1748.62 3311.08 1739.74 3304.07 1732.61 3297.06 1725.48 3288.43 1721.91 3278.18 1721.91ZM3065.61 1721.91C3059.02 1721.91 3052.94 1723.53 3047.36 1726.76 3041.79 1729.99 3037.35 1734.52 3034.05 1740.36 3030.76 1746.2 3029.11 1752.38 3029.11 1758.9 3029.11 1765.36 3030.77 1771.53 3034.09 1777.43 3037.42 1783.33 3041.88 1787.92 3047.49 1791.21 3053.09 1794.49 3059.1 1796.13 3065.53 1796.13 3072 1796.13 3078.14 1794.51 3083.95 1791.25 3089.74 1787.99 3094.21 1783.58 3097.33 1778.02 3100.46 1772.46 3102.02 1766.2 3102.02 1759.23 3102.02 1748.62 3098.52 1739.74 3091.51 1732.61 3084.49 1725.48 3075.86 1721.91 3065.61 1721.91ZM2711.11 1721.91C2704.52 1721.91 2698.44 1723.53 2692.86 1726.76 2687.29 1729.99 2682.85 1734.52 2679.55 1740.36 2676.26 1746.2 2674.61 1752.38 2674.61 1758.9 2674.61 1765.36 2676.27 1771.53 2679.6 1777.43 2682.92 1783.33 2687.38 1787.92 2692.99 1791.21 2698.59 1794.49 2704.61 1796.13 2711.03 1796.13 2717.5 1796.13 2723.64 1794.51 2729.45 1791.25 2735.25 1787.99 2739.71 1783.58 2742.84 1778.02 2745.96 1772.46 2747.53 1766.2 2747.53 1759.23 2747.53 1748.62 2744.02 1739.74 2737.01 1732.61 2729.99 1725.48 2721.36 1721.91 2711.11 1721.91ZM2602.76 1721.83C2593.72 1721.83 2585.96 1724.72 2579.47 1730.52 2574.72 1734.73 2571.14 1741.06 2568.71 1749.49L2637.31 1749.49C2635.73 1743.19 2633.43 1738.16 2630.41 1734.4 2627.39 1730.63 2623.39 1727.59 2618.42 1725.29 2613.46 1722.98 2608.23 1721.83 2602.76 1721.83ZM2148.88 1715.43 2147.13 1720.19C2146.06 1723.63 2145.15 1727.14 2144.42 1730.72L2143.46 1736.94 2147.04 1742.49C2161.37 1763.57 2180.02 1785.38 2202.14 1806.1 2224.27 1826.82 2247.27 1844 2269.26 1856.94L2275.29 1860.29 2285.05 1857.78C2288.5 1856.71 2291.88 1855.48 2295.17 1854.09L2295.76 1853.81 2293.11 1852.48C2267.36 1838.88 2240.02 1819.37 2213.98 1794.98 2187.93 1770.59 2166.69 1744.61 2151.45 1719.83ZM3132.14 1712.89 3143.98 1712.89 3143.98 1755.73C3143.98 1766.19 3144.54 1773.39 3145.67 1777.33 3147.37 1782.95 3150.6 1787.39 3155.37 1790.65 3160.14 1793.91 3165.84 1795.54 3172.44 1795.54 3179.05 1795.54 3184.66 1793.95 3189.26 1790.78 3193.86 1787.6 3197.04 1783.43 3198.79 1778.25 3199.97 1774.71 3200.57 1767.2 3200.57 1755.73L3200.57 1712.89 3212.67 1712.89 3212.67 1757.93C3212.67 1770.58 3211.18 1780.11 3208.22 1786.52 3205.26 1792.93 3200.81 1797.95 3194.86 1801.57 3188.91 1805.2 3181.45 1807.01 3172.48 1807.01 3163.52 1807.01 3156.03 1805.2 3150.03 1801.57 3144.02 1797.95 3139.54 1792.89 3136.58 1786.39 3133.62 1779.9 3132.14 1770.13 3132.14 1757.08ZM3277.2 1710.53C3284.76 1710.53 3291.6 1712.13 3297.71 1715.33 3303.84 1718.54 3309.2 1723.35 3313.83 1729.76L3313.83 1712.89 3325.5 1712.89 3325.5 1804.65 3313.83 1804.65 3313.83 1788.88C3308.86 1794.9 3303.3 1799.42 3297.12 1802.46 3290.94 1805.5 3284.19 1807.01 3276.86 1807.01 3263.84 1807.01 3252.71 1802.31 3243.49 1792.89 3234.27 1783.47 3229.66 1772.01 3229.66 1758.52 3229.66 1745.3 3234.32 1734 3243.62 1724.61 3252.93 1715.22 3264.12 1710.53 3277.2 1710.53ZM3064.64 1710.53C3072.19 1710.53 3079.03 1712.13 3085.15 1715.33 3091.27 1718.54 3096.64 1723.35 3101.26 1729.76L3101.26 1712.89 3112.93 1712.89 3112.93 1838.22 3101.26 1838.22 3101.26 1788.88C3096.3 1794.9 3090.73 1799.42 3084.56 1802.46 3078.38 1805.5 3071.63 1807.01 3064.3 1807.01 3051.27 1807.01 3040.15 1802.31 3030.93 1792.89 3021.71 1783.47 3017.1 1772.01 3017.1 1758.52 3017.1 1745.3 3021.75 1734 3031.06 1724.61 3040.36 1715.22 3051.55 1710.53 3064.64 1710.53ZM2826.27 1710.53C2832.37 1710.53 2838.24 1711.45 2843.91 1713.31 2849.58 1715.17 2854.39 1717.58 2858.34 1720.56 2862.28 1723.54 2865.63 1727.34 2868.4 1731.95L2859.01 1737.77C2850.9 1727.03 2839.83 1721.66 2825.8 1721.66 2814.6 1721.66 2805.29 1725.25 2797.89 1732.44 2790.48 1739.63 2786.78 1748.37 2786.78 1758.64 2786.78 1765.33 2788.48 1771.62 2791.88 1777.52 2795.3 1783.41 2799.97 1787.99 2805.91 1791.25 2811.85 1794.51 2818.51 1796.13 2825.89 1796.13 2839.41 1796.13 2850.45 1790.76 2859.01 1780.02L2868.4 1786.18C2864 1792.79 2858.09 1797.91 2850.68 1801.55 2843.26 1805.19 2834.82 1807.01 2825.34 1807.01 2810.79 1807.01 2798.73 1802.4 2789.14 1793.18 2779.56 1783.96 2774.76 1772.74 2774.76 1759.53 2774.76 1750.65 2777 1742.39 2781.49 1734.77 2785.97 1727.16 2792.13 1721.21 2799.97 1716.94 2807.81 1712.66 2816.58 1710.53 2826.27 1710.53ZM2710.14 1710.53C2717.7 1710.53 2724.53 1712.13 2730.65 1715.33 2736.77 1718.54 2742.14 1723.35 2746.76 1729.76L2746.76 1712.89 2758.44 1712.89 2758.44 1804.65 2746.76 1804.65 2746.76 1788.88C2741.8 1794.9 2736.23 1799.42 2730.06 1802.46 2723.88 1805.5 2717.13 1807.01 2709.8 1807.01 2696.77 1807.01 2685.65 1802.31 2676.43 1792.89 2667.21 1783.47 2662.6 1772.01 2662.6 1758.52 2662.6 1745.3 2667.25 1734 2676.56 1724.61 2685.86 1715.22 2697.06 1710.53 2710.14 1710.53ZM2602.59 1710.53C2618.28 1710.53 2630.81 1716.46 2640.18 1728.32 2646.84 1736.7 2650.22 1747.16 2650.34 1759.7L2567.53 1759.7C2567.75 1770.36 2571.17 1779.09 2577.77 1785.91 2584.38 1792.73 2592.54 1796.13 2602.25 1796.13 2606.93 1796.13 2611.49 1795.32 2615.93 1793.7 2620.36 1792.07 2624.13 1789.92 2627.23 1787.23 2630.34 1784.54 2633.7 1780.2 2637.31 1774.2L2647.29 1779.43C2644.02 1785.84 2640.24 1791.02 2635.95 1794.95 2631.66 1798.89 2626.83 1801.88 2621.47 1803.94 2616.11 1805.99 2610.04 1807.01 2603.27 1807.01 2588.25 1807.01 2576.51 1802.11 2568.05 1792.3 2559.58 1782.48 2555.35 1771.39 2555.35 1759.02 2555.35 1747.38 2558.93 1737.01 2566.1 1727.9 2575.18 1716.32 2587.35 1710.53 2602.59 1710.53ZM2474.74 1692.73 2474.74 1734.9 2496.17 1735.07C2504.47 1735.07 2510.62 1734.28 2514.6 1732.71 2518.58 1731.14 2521.69 1728.62 2523.92 1725.16 2526.15 1721.7 2527.26 1717.84 2527.26 1713.56 2527.26 1709.4 2526.13 1705.62 2523.88 1702.22 2521.62 1698.82 2518.65 1696.38 2514.98 1694.92 2511.31 1693.46 2505.21 1692.73 2496.68 1692.73ZM2462.3 1680.59 2487.09 1680.59C2500.9 1680.59 2510.26 1681.15 2515.17 1682.27 2522.56 1683.96 2528.56 1687.58 2533.19 1693.13 2537.81 1698.67 2540.12 1705.5 2540.12 1713.6 2540.12 1720.36 2538.53 1726.3 2535.34 1731.42 2532.16 1736.55 2527.6 1740.42 2521.68 1743.03 2515.76 1745.65 2507.58 1746.99 2497.15 1747.05L2541.9 1804.65 2526.51 1804.65 2481.77 1747.05 2474.74 1747.05 2474.74 1804.65 2462.3 1804.65ZM2896.31 1678.81 2908.15 1678.81 2908.15 1712.89 2926.93 1712.89 2926.93 1723.09 2908.15 1723.09 2908.15 1804.65 2896.31 1804.65 2896.31 1723.09 2880.16 1723.09 2880.16 1712.89 2896.31 1712.89ZM3426.33 1677.46 3438 1677.46 3438 1804.65 3426.33 1804.65 3426.33 1788.88C3421.37 1794.9 3415.8 1799.42 3409.62 1802.46 3403.45 1805.5 3396.7 1807.01 3389.36 1807.01 3376.34 1807.01 3365.21 1802.31 3356 1792.89 3346.78 1783.47 3342.16 1772.01 3342.16 1758.52 3342.16 1745.3 3346.82 1734 3356.12 1724.61 3365.43 1715.22 3376.62 1710.53 3389.7 1710.53 3397.26 1710.53 3404.1 1712.13 3410.21 1715.33 3416.33 1718.54 3421.7 1723.35 3426.33 1729.76ZM2967.28 1677.46C2973.14 1677.46 2978.63 1678.91 2983.73 1681.81 2988.83 1684.7 2994.23 1690.03 2999.93 1697.79L2989.78 1705.47C2985.1 1699.28 2981.11 1695.2 2977.81 1693.24 2974.51 1691.27 2970.91 1690.28 2967.03 1690.28 2962.01 1690.28 2957.9 1691.8 2954.72 1694.84 2951.53 1697.88 2949.94 1701.61 2949.94 1706.06 2949.94 1708.76 2950.5 1711.37 2951.63 1713.9 2952.76 1716.43 2954.82 1719.19 2957.81 1722.17 2959.44 1723.74 2964.8 1727.87 2973.88 1734.56 2984.65 1742.49 2992.03 1749.55 2996.04 1755.73 3000.04 1761.92 3002.05 1768.13 3002.05 1774.37 3002.05 1783.37 2998.62 1791.19 2991.77 1797.82 2984.92 1804.46 2976.58 1807.77 2966.77 1807.77 2959.21 1807.77 2952.37 1805.76 2946.22 1801.74 2940.07 1797.72 2934.4 1790.99 2929.22 1781.54L2939.79 1775.22C2947.23 1788.88 2955.83 1795.71 2965.59 1795.71 2969.76 1795.71 2973.68 1794.74 2977.34 1792.8 2981.01 1790.86 2983.8 1788.26 2985.72 1785 2987.64 1781.74 2988.59 1778.28 2988.59 1774.63 2988.59 1770.47 2987.19 1766.39 2984.37 1762.4 2980.47 1756.89 2973.37 1750.25 2963.05 1742.49 2952.67 1734.68 2946.22 1729.03 2943.68 1725.54 2939.28 1719.69 2937.09 1713.37 2937.09 1706.56 2937.09 1701.16 2938.38 1696.24 2940.97 1691.8 2943.57 1687.36 2947.22 1683.86 2951.93 1681.3 2956.64 1678.74 2961.76 1677.46 2967.28 1677.46ZM2252.3 1642.99C2210.49 1642.99 2174.12 1666.24 2155.47 1700.49L2151.49 1708.73 2153.9 1712.97C2169.03 1738.29 2190.91 1765.3 2218.02 1790.69 2245.12 1816.07 2273.53 1836.14 2299.81 1849.61L2302.14 1850.74 2304.8 1849.46C2339.13 1830.86 2362.43 1794.57 2362.43 1752.86L2362.09 1746.18 2354.1 1757.54C2340.95 1775.29 2325.01 1793.24 2306.69 1810.39L2286.62 1827.99 2285.98 1827.61 2281.46 1824.56 2289.29 1818.1C2293.77 1814.24 2298.23 1810.24 2302.65 1806.1 2324.78 1785.38 2343.43 1763.57 2357.76 1742.49L2361.18 1737.17 2360.19 1730.72C2359.46 1727.14 2358.55 1723.63 2357.48 1720.19L2355.8 1715.61 2346.64 1730.51C2332.13 1752 2313.33 1774.07 2291 1794.98 2283.56 1801.95 2276.01 1808.52 2268.43 1814.67L2267.82 1815.13 2262.99 1811.5 2263.49 1811.11C2271.37 1804.76 2279.22 1797.94 2286.97 1790.69 2314.07 1765.3 2335.95 1738.29 2351.09 1712.97L2353.29 1709.08 2349.14 1700.49C2330.49 1666.24 2294.12 1642.99 2252.3 1642.99ZM2378.82 1631.24 2379.9 1636.15C2382.13 1653.22 2376.79 1675.08 2365.09 1698.95L2359.86 1708.96 2363.31 1718.38 2366.15 1729.39 2372.85 1717.65C2392.21 1681.26 2396.56 1649.57 2381.1 1633.14ZM2126.21 1631.05 2123.7 1633.14C2108.24 1649.57 2112.59 1681.26 2131.95 1717.65L2138.52 1729.16 2141.3 1718.38 2144.9 1708.55 2139.89 1698.95C2128.19 1675.08 2122.85 1653.22 2125.08 1636.15ZM2169.02 1606.58C2156.57 1606.83 2146.44 1610.43 2139.57 1617.73L2139.3 1618.1 2141.21 1617.55C2144.19 1616.97 2147.33 1616.62 2150.61 1616.48 2170.34 1615.64 2195.38 1622.67 2222.35 1636.33L2225.6 1638.14 2221.44 1639.07 2217.47 1640.33 2202.54 1633.33C2184.06 1625.66 2167.14 1621.71 2153.15 1621.99 2146.92 1622.12 2141.28 1623.08 2136.33 1624.92L2134.2 1625.99 2132.14 1630.83C2126.78 1648.48 2132.76 1673.94 2147.82 1702.24L2147.84 1702.27 2150.1 1697.59C2169.78 1661.44 2208.17 1636.9 2252.3 1636.9 2296.44 1636.9 2334.83 1661.44 2354.51 1697.59L2356.94 1702.62 2357.16 1702.24C2372.22 1673.94 2378.2 1648.48 2372.84 1630.83L2370.83 1626.1 2368.47 1624.92C2363.52 1623.08 2357.88 1622.12 2351.65 1621.99 2337.66 1621.71 2320.74 1625.66 2302.26 1633.33L2287.45 1640.27 2278.91 1638.31 2282.45 1636.33C2309.42 1622.67 2334.46 1615.64 2354.19 1616.48 2357.47 1616.62 2360.61 1616.97 2363.59 1617.55L2365.73 1618.17 2365.41 1617.73C2358.54 1610.43 2348.41 1606.83 2335.97 1606.58 2317.3 1606.2 2293.45 1613.35 2267.62 1626.81L2258.31 1632.13 2258.76 1632.39 2263.54 1635.55 2253.24 1635.03 2253.2 1635.05 2252.39 1634.99 2252.39 1634.99 2252.36 1634.99 2241.46 1635.54 2246.22 1632.39 2246.67 1632.13 2237.36 1626.81C2211.54 1613.35 2187.68 1606.2 2169.02 1606.58ZM2166.48 1601.07C2188.06 1600.16 2215.99 1608.64 2245.86 1624.93L2252.49 1628.77 2259.12 1624.93C2288.99 1608.64 2316.92 1600.16 2338.5 1601.07 2351.65 1601.62 2362.44 1605.67 2369.87 1613.56 2371.72 1615.54 2373.33 1617.7 2374.68 1620.05L2375.42 1621.73 2379.37 1623.77C2381.63 1625.26 2383.7 1627 2385.56 1628.97 2404.13 1648.71 2397.3 1687.84 2371.68 1731.16L2367.46 1737.87 2367.94 1741C2368.33 1744.9 2368.54 1748.86 2368.54 1752.86 2368.54 1792.89 2348.21 1828.17 2317.29 1849.01L2308.99 1854.04 2310.94 1854.98C2340.2 1868.19 2366.04 1872.53 2383.36 1866.08L2385.49 1865.01 2387.55 1860.17C2392.91 1842.52 2386.93 1817.06 2371.87 1788.76L2367.15 1780.42 2368.14 1776.61 2368.82 1772.16 2374.4 1781.71C2389.82 1809.57 2397.16 1835.34 2394.61 1854.85L2393.49 1859.95 2396 1857.86C2414.89 1837.77 2404.2 1794.9 2372.66 1748.51L2370.14 1745 2369.93 1740.81 2369.51 1738.07 2370.77 1736.05 2382.59 1753.31C2411.45 1799.2 2419.95 1841.3 2400.45 1862.03 2398.59 1864 2396.52 1865.73 2394.26 1867.23L2390.08 1869.39 2389.39 1870.95C2388.04 1873.3 2386.43 1875.46 2384.58 1877.44 2366.01 1897.18 2326.43 1892.85 2281.47 1870.08L2274.99 1866.57 2264.19 1868.22C2260.28 1868.61 2256.32 1868.82 2252.3 1868.82 2248.29 1868.82 2244.33 1868.61 2240.42 1868.22L2229.63 1866.58 2218.29 1872.57C2175.43 1893.14 2138.1 1896.44 2120.22 1877.44 2118.37 1875.46 2116.76 1873.3 2115.41 1870.95L2114.67 1869.27 2110.72 1867.23C2108.46 1865.73 2106.39 1864 2104.53 1862.03 2084.1 1840.31 2094.41 1795.14 2126.65 1746.73L2134.37 1735.75 2135.35 1737.48 2134.84 1740.81 2134.61 1745.32 2132.33 1748.51C2100.79 1794.9 2090.09 1837.77 2108.99 1857.86L2111.27 1859.76 2110.19 1854.85C2107.64 1835.34 2114.98 1809.57 2130.4 1781.71L2136 1772.13 2137.6 1780.5 2132.93 1788.76C2117.87 1817.06 2111.89 1842.52 2117.25 1860.17L2119.26 1864.9 2121.62 1866.08C2137.86 1872.13 2161.59 1868.69 2188.6 1857.35L2195.7 1854.09 2187.32 1849.01C2156.4 1828.17 2136.07 1792.89 2136.07 1752.86 2136.07 1748.86 2136.27 1744.9 2136.67 1741L2137.19 1737.63 2133.12 1731.16C2107.5 1687.84 2100.67 1648.71 2119.24 1628.97 2121.1 1627 2123.17 1625.27 2125.43 1623.77L2129.61 1621.61 2130.3 1620.05C2131.66 1617.7 2133.26 1615.54 2135.12 1613.56 2142.54 1605.67 2153.33 1601.62 2166.48 1601.07Z" fill="#FFFFFF" fill-rule="evenodd"/>
  </g>
</svg>